<?xml version="1.0" ?>
<!-- Uploaded to: SVG Repo, www.svgrepo.com, Generator: SVG Repo Mixer Tools -->
<svg width="800px" height="800px" viewBox="0 0 50 50" id="Message_And_Communication_Icons" version="1.1" xml:space="preserve" xmlns="http://www.w3.org/2000/svg" xmlns:xlink="http://www.w3.org/1999/xlink">
<g>
<g>
<g>
<g>
<g>
<rect height="19.3" style="fill:#4DE0F9;" width="8.2" x="5.8" y="16.6"/>
</g>
</g>
<g>
<g>
<polygon points="31.9,16.6 31.9,20.6 32,20.6 37.6,20.6 38.6,20.6 38.6,35.9 44.2,35.9 44.2,16.6             " style="fill:#4DE0F9;"/>
</g>
</g>
</g>
<g>
<g>
<polygon points="44.8,37.2 43.6,37.2 43.6,14.5 32.6,14.5 32.6,13.3 44.8,13.3     " style="fill:#0D5FC3;"/>
</g>
</g>
<g>
<g>
<polygon points="6.4,37.2 5.2,37.2 5.2,13.3 11.4,13.3 11.4,14.5 6.4,14.5     " style="fill:#0D5FC3;"/>
</g>
</g>
<g>
<g>
<path d="M44.7,41.3H5.3c-1.2,0-2.1-1-2.1-2.1v-2.5h19v1.2l5.7,0l0-1.3h19v2.5      C46.9,40.3,45.9,41.3,44.7,41.3z M4.3,37.8v1.3c0,0.5,0.4,0.9,0.9,0.9h39.5c0.5,0,0.9-0.4,0.9-0.9v-1.3l-16.6,0      c0,0.7-0.6,1.2-1.2,1.2h-5.7c-0.7,0-1.2-0.6-1.2-1.2v0H4.3z" style="fill:#0D5FC3;"/>
</g>
</g>
</g>
<g>
<g>
<g>
<g>
<polygon points="31.5,35.9 30.3,35.9 30.3,9.9 13.7,9.9 13.7,35.9 12.5,35.9 12.5,8.7 31.5,8.7      " style="fill:#0D5FC3;"/>
</g>
</g>
<g>
<g>
<g>
<rect height="1.2" style="fill:#0D5FC3;" width="5" x="21.9" y="13.3"/>
</g>
</g>
<g>
<g>
<rect height="1.2" style="fill:#0D5FC3;" width="2.8" x="17.3" y="13.3"/>
</g>
</g>
<g>
<g>
<rect height="1.2" style="fill:#0D5FC3;" width="9.6" x="17.3" y="16.3"/>
</g>
</g>
</g>
<g>
<g>
<g>
<rect height="1.2" style="fill:#0D5FC3;" width="2" x="24.9" y="19.3"/>
</g>
</g>
<g>
<g>
<rect height="1.2" style="fill:#0D5FC3;" width="5.8" x="17.3" y="19.3"/>
</g>
</g>
<g>
<g>
<rect height="1.2" style="fill:#0D5FC3;" width="4" x="22.9" y="22.4"/>
</g>
</g>
<g>
<g>
<rect height="1.2" style="fill:#0D5FC3;" width="3.6" x="17.3" y="22.4"/>
</g>
</g>
<g>
<g>
<rect height="1.2" style="fill:#0D5FC3;" width="9.6" x="17.3" y="25.4"/>
</g>
</g>
</g>
<g>
<g>
<g>
<rect height="1.2" style="fill:#0D5FC3;" width="4" x="22.9" y="28.6"/>
</g>
</g>
<g>
<g>
<rect height="1.2" style="fill:#0D5FC3;" width="3.6" x="17.3" y="28.6"/>
</g>
</g>
<g>
<g>
<rect height="1.2" style="fill:#0D5FC3;" width="9.6" x="17.3" y="31.6"/>
</g>
</g>
</g>
</g>
</g>
<g>
<g>
<g>
<g>
<polygon points="38.2,35.9 37,35.9 37,21.2 31,21.2 31,20 38.2,20      " style="fill:#0D5FC3;"/>
</g>
</g>
<g>
<g>
<g>
<rect height="1.2" style="fill:#0D5FC3;" width="2.4" x="31.1" y="24.5"/>
</g>
</g>
<g>
<g>
<rect height="1.2" style="fill:#0D5FC3;" width="2.4" x="31.1" y="27.6"/>
</g>
</g>
</g>
<g>
<g>
<g>
<rect height="1.2" style="fill:#0D5FC3;" width="2.4" x="31.1" y="30.6"/>
</g>
</g>
<g>
<g>
<rect height="1.2" style="fill:#0D5FC3;" width="2.4" x="31.1" y="33.7"/>
</g>
</g>
</g>
</g>
</g>
</g>
</svg>