<?xml version="1.0" encoding="iso-8859-1"?>
<!-- Uploaded to: SVG Repo, www.svgrepo.com, Generator: SVG Repo Mixer Tools -->
<svg version="1.1" id="Layer_1" xmlns="http://www.w3.org/2000/svg" xmlns:xlink="http://www.w3.org/1999/xlink" 
	 viewBox="0 0 511.6 511.6" xml:space="preserve">
<rect x="63.95" style="fill:#5D9CEC;" width="74.6" height="511.6"/>
<g>
	<path style="fill:#E6E9ED;" d="M85.266,74.613H53.29c-5.886,0-10.663-4.77-10.663-10.663c0-5.887,4.777-10.656,10.663-10.656
		h31.976c5.886,0,10.663,4.77,10.663,10.656C95.929,69.844,91.152,74.613,85.266,74.613z"/>
	<path style="fill:#E6E9ED;" d="M85.266,138.564H53.29c-5.886,0-10.663-4.77-10.663-10.664c0-5.886,4.777-10.655,10.663-10.655
		h31.976c5.886,0,10.663,4.77,10.663,10.655C95.929,133.794,91.152,138.564,85.266,138.564z"/>
	<path style="fill:#E6E9ED;" d="M85.266,202.514H53.29c-5.886,0-10.663-4.77-10.663-10.664c0-5.886,4.777-10.655,10.663-10.655
		h31.976c5.886,0,10.663,4.77,10.663,10.655C95.929,197.744,91.152,202.514,85.266,202.514z"/>
	<path style="fill:#E6E9ED;" d="M85.266,266.463H53.29c-5.886,0-10.663-4.77-10.663-10.655c0-5.894,4.777-10.663,10.663-10.663
		h31.976c5.886,0,10.663,4.77,10.663,10.663C95.929,261.694,91.152,266.463,85.266,266.463z"/>
	<path style="fill:#E6E9ED;" d="M85.266,330.413H53.29c-5.886,0-10.663-4.762-10.663-10.663c0-5.887,4.777-10.648,10.663-10.648
		h31.976c5.886,0,10.663,4.762,10.663,10.648C95.929,325.652,91.152,330.413,85.266,330.413z"/>
	<path style="fill:#E6E9ED;" d="M85.266,394.363H53.29c-5.886,0-10.663-4.762-10.663-10.663c0-5.887,4.777-10.648,10.663-10.648
		h31.976c5.886,0,10.663,4.762,10.663,10.648C95.929,389.602,91.152,394.363,85.266,394.363z"/>
	<path style="fill:#E6E9ED;" d="M85.266,458.314H53.29c-5.886,0-10.663-4.762-10.663-10.663c0-5.887,4.777-10.648,10.663-10.648
		h31.976c5.886,0,10.663,4.762,10.663,10.648C95.929,453.552,91.152,458.314,85.266,458.314z"/>
</g>
<rect x="159.88" style="fill:#434A54;" width="309.09" height="511.6"/>
<rect x="117.24" style="fill:#656D78;" width="309.08" height="511.6"/>
<path style="fill:#5D9CEC;" d="M383.696,255.808c0,58.853-47.713,106.581-106.572,106.581c-58.868,0-106.597-47.729-106.597-106.581
	c0-58.868,47.729-106.589,106.597-106.589C335.983,149.219,383.696,196.94,383.696,255.808z"/>
<path style="fill:#FC6E51;" d="M356.342,327.088v-7.025c0-8.166-5.246-15.41-13.052-17.986l-0.593-0.172
	c-8.557-2.295-11.461-4.512-15.301-5.979c-13.521-5.152-17.05-8.868-17.955-10.616c-0.031-0.078-0.062-0.141-0.094-0.203
	l-0.094-15.738l-32.131-0.359l-32.123,0.359l-0.125,15.738c-0.016,0.062-0.047,0.125-0.078,0.203
	c-0.905,1.748-4.419,5.464-17.971,10.616c-3.825,1.468-6.713,3.685-15.3,5.979l-0.594,0.172c-7.807,2.576-13.053,9.82-13.053,17.986
	v7.025c19.517,21.67,47.775,35.301,79.243,35.301C308.567,362.389,336.858,348.758,356.342,327.088z"/>
<rect x="426.32" y="21.733" style="fill:#A0D468;" width="42.654" height="63.95"/>
<rect x="426.32" y="107" style="fill:#FC6E51;" width="42.654" height="63.95"/>
<rect x="426.32" y="191.85" style="fill:#ED5564;" width="42.654" height="63.958"/>
<path style="fill:#EAC6BB;" d="M321.682,250.577c0,28.97-27.604,55.621-44.559,55.621c-16.963,0-44.582-26.651-44.582-55.621
	c0-28.954,19.953-48.063,44.582-48.063C301.729,202.514,321.682,221.623,321.682,250.577z"/>
</svg>